<?xml version="1.0" standalone="no"?>
<!DOCTYPE svg PUBLIC "-//W3C//DTD SVG 20010904//EN"
 "http://www.w3.org/TR/2001/REC-SVG-20010904/DTD/svg10.dtd">
<svg version="1.0" xmlns="http://www.w3.org/2000/svg"
 width="400.000000pt" height="300.000000pt" viewBox="0 0 400.000000 300.000000"
 preserveAspectRatio="xMidYMid meet">

<g transform="translate(0.000000,300.000000) scale(0.100000,-0.100000)"
fill="#000000" stroke="none">
<path d="M10 1500 l0 -1500 1995 0 1995 0 0 1500 0 1500 -1995 0 -1995 0 0
-1500z m1953 670 c28 -31 28 -34 22 -114 -7 -86 5 -137 42 -178 23 -25 -1 -24
-44 3 -40 25 -60 61 -73 132 -6 32 -18 59 -31 70 -23 19 -59 23 -59 7 0 -5 3
-10 8 -10 4 0 17 -15 30 -33 28 -42 29 -99 2 -167 -24 -61 -25 -76 -4 -115 8
-16 12 -31 7 -32 -32 -11 -78 -50 -112 -96 -39 -53 -77 -87 -113 -100 -10 -4
-18 -5 -18 -4 0 1 13 34 30 72 29 70 39 135 20 135 -6 0 -27 -7 -48 -15 -20
-9 -38 -12 -39 -8 -2 4 -10 19 -18 33 -8 14 -18 33 -21 43 -3 9 -13 17 -20 17
-10 0 -13 7 -8 25 8 32 7 56 -5 139 -13 82 -1 113 60 153 50 33 133 43 178 20
28 -14 31 -14 37 5 3 10 20 28 37 39 46 29 103 20 140 -21z m550 -126 c68 -23
122 -96 142 -191 5 -27 3 -33 -10 -33 -9 0 -23 -16 -31 -37 -9 -21 -24 -47
-34 -58 -9 -11 -22 -33 -27 -50 -7 -21 -17 -31 -34 -34 -13 -1 -43 -16 -67
-32 -24 -16 -47 -29 -52 -29 -5 0 -19 14 -32 30 -28 38 -61 39 -99 1 l-29 -29
-87 84 -87 85 77 34 c108 46 108 46 136 150 13 49 55 92 107 110 51 18 71 18
127 -1z m-503 -342 c0 -68 -26 -146 -61 -187 -34 -38 -105 -65 -172 -65 l-40
0 6 58 c10 120 84 203 204 231 63 15 63 15 63 -37z m126 -63 c84 -66 108 -113
101 -190 -3 -31 -17 -84 -32 -118 -30 -67 -32 -67 -100 -34 -100 50 -124 127
-90 283 8 36 15 88 15 115 l1 50 20 -27 c11 -15 49 -50 85 -79z m-520 -63
c-14 -24 -48 -60 -75 -80 -27 -20 -63 -52 -80 -72 l-31 -35 0 43 c0 24 9 62
20 86 16 35 28 47 67 63 26 11 64 27 83 37 19 10 37 14 38 10 2 -5 -8 -28 -22
-52z m766 -92 c65 -69 88 -115 88 -173 0 -23 -3 -22 -47 20 -146 138 -133 118
-132 195 0 58 2 66 12 49 7 -10 42 -51 79 -91z m-1143 60 c35 -45 24 -96 -26
-122 -34 -18 -52 -14 -84 17 -36 36 -37 73 -4 106 34 35 86 34 114 -1z m477
-20 c-3 -9 -6 -31 -6 -50 0 -34 0 -34 -47 -34 -27 -1 -77 -7 -113 -15 -36 -7
-66 -12 -68 -10 -9 9 82 69 143 95 80 34 100 37 91 14z m247 -96 c-29 -109
-64 -192 -111 -268 -32 -51 -35 -53 -48 -35 -8 11 -19 35 -24 55 -30 106 16
205 126 275 30 19 57 42 60 50 4 8 10 15 14 15 5 0 -3 -42 -17 -92z m908 33
c71 -71 0 -183 -96 -151 -64 21 -84 96 -39 149 36 43 93 44 135 2z m-552 -99
c25 -50 27 -84 5 -118 -26 -39 -51 -48 -80 -29 -30 19 -31 53 -5 127 11 29 23
71 27 93 l6 40 13 -36 c7 -19 22 -54 34 -77z m-1120 -31 c92 -88 123 -153 128
-266 l4 -80 -41 75 c-23 41 -60 104 -82 139 -22 35 -58 100 -79 144 -41 85
-53 133 -20 84 10 -16 50 -59 90 -96z m624 77 c-63 -65 -86 -155 -64 -250 5
-21 7 -38 5 -38 -2 0 -18 9 -36 20 -18 11 -43 20 -56 20 -18 0 -21 4 -18 23 3
12 7 42 11 67 15 116 46 163 118 180 68 16 74 13 40 -22z m-153 -40 c-39 -72
-54 -159 -47 -271 6 -108 27 -184 63 -227 l26 -30 -39 0 c-52 0 -102 16 -128
40 l-23 21 19 50 c28 72 25 172 -8 286 l-27 93 20 28 c28 37 80 62 131 62 l41
0 -28 -52z m-153 15 c-8 -10 -24 -39 -35 -64 -20 -46 -72 -99 -98 -99 -18 0
-11 56 15 110 17 37 69 70 110 70 22 0 23 -1 8 -17z m458 -129 c-8 -55 -18
-114 -21 -132 -7 -48 13 -135 42 -178 14 -20 22 -39 19 -42 -3 -3 -29 2 -59
11 -58 19 -93 57 -115 129 -11 35 -10 39 38 110 27 40 62 103 77 140 15 38 29
66 31 64 3 -2 -3 -48 -12 -102z m912 2 c-22 -42 -79 -124 -144 -202 -59 -71
-122 -148 -140 -169 l-32 -40 0 65 c-1 116 40 175 218 317 51 41 101 88 110
104 12 21 17 25 19 13 2 -9 -12 -48 -31 -88z m-774 -28 c-7 -16 -18 -28 -23
-28 -6 0 -10 -18 -10 -40 0 -22 -4 -40 -10 -40 -5 0 -10 -13 -10 -29 0 -17 -4
-32 -9 -35 -5 -3 -3 -23 5 -43 17 -50 18 -116 2 -111 -7 3 -28 29 -45 58 -30
49 -33 62 -33 130 0 41 5 94 10 117 5 23 11 62 11 86 l2 45 62 -42 c61 -41 62
-41 48 -68z m-623 -3 c-14 -89 -42 -145 -98 -197 l-47 -43 -3 28 c-2 15 2 53
8 85 10 49 19 64 65 107 29 28 58 61 64 73 19 37 23 20 11 -53z m963 51 c49
-20 93 -77 106 -136 6 -28 9 -56 6 -60 -6 -10 -68 14 -109 43 -31 22 -50 61
-61 125 -8 48 1 52 58 28z m-63 -85 c18 -63 30 -82 85 -141 69 -74 78 -93 73
-161 l-3 -44 -82 78 c-97 93 -133 156 -133 233 0 46 29 143 36 119 1 -5 12
-43 24 -84z m-190 34 c11 -29 -2 -73 -25 -81 -10 -4 -15 -20 -15 -46 0 -47
-16 -82 -35 -74 -11 4 -12 0 -5 -20 13 -33 13 -134 0 -134 -5 0 -14 18 -20 40
-5 22 -15 58 -21 81 -8 31 -7 50 4 82 8 23 20 64 26 92 20 81 70 115 91 60z
m21 -108 c-6 -6 -11 -27 -11 -48 0 -22 -10 -50 -25 -73 -16 -24 -25 -51 -25
-76 0 -22 -3 -40 -7 -40 -15 0 -7 125 10 162 9 21 17 48 17 61 0 13 9 32 20
42 11 10 21 25 22 34 0 9 3 1 5 -18 3 -18 0 -38 -6 -44z m-477 -15 c16 -9 38
-29 49 -44 22 -30 69 -180 59 -190 -4 -3 -23 -9 -42 -13 -43 -8 -78 16 -115
79 -28 48 -50 145 -40 177 8 24 38 20 89 -9z m-49 -276 c45 1 117 10 165 22
103 26 197 28 248 5 l37 -17 -85 -6 c-47 -4 -123 -15 -170 -25 -120 -26 -243
-25 -295 2 -22 11 -49 30 -59 42 -19 21 -19 21 30 -1 39 -18 66 -23 129 -22z"/>
</g>
</svg>
